<?xml version="1.0" standalone="no"?><!DOCTYPE svg PUBLIC "-//W3C//DTD SVG 1.1//EN" "http://www.w3.org/Graphics/SVG/1.1/DTD/svg11.dtd"><svg t="1665193587119" class="icon" viewBox="0 0 1024 1024" version="1.1" xmlns="http://www.w3.org/2000/svg" p-id="2270" width="48" height="48" xmlns:xlink="http://www.w3.org/1999/xlink"><path d="M903.968 70.272l39.808-39.808c10.112-10.112 26.368-10.112 36.352 0l10.624 10.624c10.112 10.112 10.112 26.368 0 36.352l-39.936 39.936c-1.92 1.92-4.992 1.92-6.912 0l-40.064-40.064c-1.92-1.92-1.92-5.12 0.128-7.04zM625.95968 438.97984l-23.17056 23.17056-45.43616-45.43488 23.17056-23.17056zM896.90496 168.0576l-18.10176 18.10176-45.43616-45.43616 18.10176-18.10176zM859.24992 205.74336l-18.10176 18.10176-45.43488-45.43488 18.10176-18.10176zM230.61504 834.30016L212.512 852.40192l-45.43616-45.43616 18.10176-18.10176zM284.11264 780.81024l-18.10176 18.10176-45.43616-45.43488 18.10176-18.10176zM391.10272 673.9712l-18.10176 18.10176-45.43616-45.43488 18.10176-18.10176zM468.6848 596.24064l-18.10176 18.10176-45.43616-45.43488 18.10176-18.10176zM524.4096 540.57856l-18.10176 18.10176-45.43488-45.43488 18.10176-18.10176zM739.53536 325.50912l-18.10176 18.10176L676 298.176l18.10176-18.10176zM156.54912 908.4288l-18.10176 18.10176-45.43616-45.43616 18.10176-18.10176zM21.152 959.616l14.464-14.464c0.384-0.384 0.896-0.384 1.152 0L75.552 984.064c1.536 1.536 1.536 3.84 0 5.376l-12.288 12.288c-5.76 5.76-14.976 5.76-20.736 0l-21.376-21.376c-5.76-5.632-5.76-14.976 0-20.736z" fill="#55AEFF" p-id="2271"></path><path d="M1015.712 25.472L997.408 7.168c-10.112-10.112-26.496-10.112-36.608 0L7.584 960.384c-10.112 10.112-10.112 26.496 0 36.608l18.304 18.304c10.112 10.112 26.496 10.112 36.608 0L1015.712 62.08c10.112-10.112 10.112-26.496 0-36.608zM597.536 396.16l29.184 29.184-38.144 38.144-29.184-29.184 38.144-38.144z m41.984 16.384l-29.184-29.184L903.712 89.984l29.184 29.184-293.376 293.376z m-93.056 34.688l29.184 29.184L78.24 973.824 49.056 944.64l497.408-497.408zM984.608 19.968L1002.912 38.4c2.944 2.944 2.944 7.936 0 10.88l-57.088 57.088L916.512 77.184l57.088-57.088c3.072-3.072 7.936-3.072 11.008-0.128zM38.816 1002.368L20.512 984.064c-2.944-2.944-2.944-7.936 0-10.88L36.256 957.44l29.184 29.184-15.744 15.744c-2.944 3.072-7.936 3.072-10.88 0z" fill="#002C5B" p-id="2272"></path><path d="M675.104 348.416c4.864 4.864 12.8 4.864 17.664 0 4.864-4.864 4.864-12.8 0-17.664-4.864-4.864-12.8-4.864-17.664 0-4.864 4.864-4.864 12.8 0 17.664zM499.104 524.416c4.864 4.864 12.8 4.864 17.664 0 4.864-4.864 4.864-12.8 0-17.664-4.864-4.864-12.8-4.864-17.664 0-4.992 4.864-4.992 12.8 0 17.664zM399.008 624.512c-4.864-4.864-12.8-4.864-17.664 0-4.864 4.864-4.864 12.8 0 17.664 4.864 4.864 12.8 4.864 17.664 0 4.864-4.864 4.864-12.8 0-17.664zM434.72 588.8c-4.864-4.864-12.8-4.864-17.664 0-4.864 4.864-4.864 12.8 0 17.664 4.864 4.864 12.8 4.864 17.664 0 4.864-4.864 4.864-12.8 0-17.664zM355.872 667.52c-4.864-4.864-12.8-4.864-17.664 0-4.864 4.864-4.864 12.8 0 17.664 4.864 4.864 12.8 4.864 17.664 0 4.992-4.864 4.992-12.8 0-17.664zM305.568 717.952c-4.864-4.864-12.8-4.864-17.664 0-4.864 4.864-4.864 12.8 0 17.664 4.864 4.864 12.8 4.864 17.664 0 4.864-4.864 4.864-12.8 0-17.664zM233.504 789.888c-4.864-4.864-12.8-4.864-17.664 0-4.864 4.864-4.864 12.8 0 17.664 4.864 4.864 12.8 4.864 17.664 0 4.992-4.864 4.992-12.8 0-17.664zM145.568 877.952c-4.864-4.864-12.8-4.864-17.664 0-4.864 4.864-4.864 12.8 0 17.664 4.864 4.864 12.8 4.864 17.664 0 4.864-4.864 4.864-12.8 0-17.664z" fill="#002C5B" p-id="2273"></path></svg>