<?xml version="1.0" standalone="no"?><!DOCTYPE svg PUBLIC "-//W3C//DTD SVG 1.1//EN" "http://www.w3.org/Graphics/SVG/1.1/DTD/svg11.dtd"><svg t="1665193617142" class="icon" viewBox="0 0 1024 1024" version="1.1" xmlns="http://www.w3.org/2000/svg" p-id="2589" xmlns:xlink="http://www.w3.org/1999/xlink" width="48" height="48"><path d="M880 101H774.8c-2.1 0-4 0.6-5.6 1.7-2.8-1.1-5.9-1.7-9.1-1.7h-75.6c-3.2 0-6.3 0.6-9.1 1.7-1.6-1.1-3.6-1.7-5.6-1.7H144c-5.5 0-10 4.5-10 10v806c0 5.5 4.5 10 10 10h105.1c5.5 0 10-4.5 10-10v-60.1h95.1c5.5 0 10-4.5 10-10v-60.1h95.1c5.5 0 10-4.5 10-10v-60.1h95.1c5.5 0 10-4.5 10-10v-60.1h95.1c5.5 0 10-4.5 10-10V576c1.5 0.3 3.1 0.5 4.8 0.5h75.6c13.7 0 24.8-11.1 24.8-24.8v-45.3H880c5.5 0 10-4.5 10-10V111c0-5.5-4.5-10-10-10z m-683.4 20c23.5 0 42.6 19.1 42.6 42.6s-19.1 42.6-42.6 42.6-42.6-19.1-42.6-42.6 19.1-42.6 42.6-42.6z m105.1 0c23.5 0 42.6 19.1 42.6 42.6s-19.1 42.6-42.6 42.6-42.6-19.1-42.6-42.6c0.1-23.5 19.2-42.6 42.6-42.6z m105.2 0c23.5 0 42.6 19.1 42.6 42.6s-19.1 42.6-42.6 42.6-42.6-19.1-42.6-42.6 19.1-42.6 42.6-42.6z m105.1 0c23.5 0 42.6 19.1 42.6 42.6s-19.1 42.6-42.6 42.6-42.6-19.1-42.6-42.6S488.5 121 512 121z m105.1 0c23.5 0 42.6 19.1 42.6 42.6s-19.1 42.6-42.6 42.6-42.6-19.1-42.6-42.6c0.1-23.5 19.2-42.6 42.6-42.6z m105.2 0c23.5 0 42.6 19.1 42.6 42.6s-19.1 42.6-42.6 42.6-42.6-19.1-42.6-42.6 19.1-42.6 42.6-42.6z m105.1 0c23.5 0 42.6 19.1 42.6 42.6s-19.1 42.6-42.6 42.6-42.6-19.1-42.6-42.6 19.1-42.6 42.6-42.6zM239.2 907H154V209.4c11.2 10.4 26.1 16.8 42.6 16.8 16.4 0 31.4-6.4 42.6-16.8V907z m105.1-70.1h-85.1V209.4c11.2 10.4 26.1 16.8 42.6 16.8 16.4 0 31.4-6.4 42.6-16.8v627.5z m105.1-70.1h-85.1V209.4c11.2 10.4 26.1 16.8 42.6 16.8 16.4 0 31.4-6.4 42.6-16.8v557.4z m105.2-70.1h-85.1V209.4c11.2 10.4 26.1 16.8 42.6 16.8 16.4 0 31.4-6.4 42.6-16.8v487.3z m105.1-70h-85.1V209.4c11.2 10.4 26.1 16.8 42.6 16.8 16.4 0 31.4-6.4 42.6-16.8V626.7z m105.1-74.9c0 2.6-2.1 4.8-4.8 4.8h-75.6c-2.6 0-4.8-2.1-4.8-4.8V209.4c11.2 10.4 26.1 16.8 42.6 16.8s31.4-6.4 42.6-16.8V551.8z m20-65.3V209.4c11.2 10.4 26.1 16.8 42.6 16.8 16.4 0 31.4-6.4 42.6-16.8v277.1h-85.2z" p-id="2590" fill="#13227a"></path></svg>